<svg width="582" height="535" viewBox="0 0 582 535" fill="none" xmlns="http://www.w3.org/2000/svg">
<g clip-path="url(#clip0_127_95)">
<path d="M302.454 392.034H246.018L241.103 423.458C263.484 418.998 284.637 408.193 302.454 392.034Z" fill="#EF749B"/>
<path opacity="0.7" d="M226.797 513.368L245.93 392.034H330.979L349.323 513.368H226.797Z" fill="#EF749B"/>
<path d="M268.575 390.944C268.575 378.85 277.264 369.036 287.972 369.036C298.68 369.036 307.369 378.85 307.369 390.944" stroke="#231F20" stroke-miterlimit="10"/>
<path d="M70.2158 536.763L91.7194 400.56H187.037L207.575 536.763H70.2158Z" fill="#C2D9F0"/>
<path d="M117.084 399.37C117.084 385.789 126.827 374.786 138.851 374.786C150.876 374.786 160.618 385.789 160.618 399.37" fill="white"/>
<path d="M117.084 399.37C117.084 385.789 126.827 374.786 138.851 374.786C150.876 374.786 160.618 385.789 160.618 399.37" stroke="#B9C6E4" stroke-miterlimit="10"/>
<path d="M307.193 536.961L329.224 397.883H426.56L447.625 536.961H307.193Z" fill="white" stroke="#B9C6E4" stroke-miterlimit="10"/>
<path d="M355.116 396.693C355.379 382.815 365.56 371.812 377.848 372.01C389.785 372.308 399.439 383.113 399.703 396.693" fill="white"/>
<path d="M355.116 396.693C355.379 382.815 365.56 371.812 377.848 372.01C389.785 372.308 399.439 383.113 399.703 396.693" stroke="#B9C6E4" stroke-miterlimit="10"/>
<path d="M143.679 568.782L157.02 484.125H216.264L229.079 568.782H143.679Z" fill="white" stroke="#EF749B" stroke-miterlimit="10"/>
<path d="M172.818 483.332C172.818 474.906 178.874 468.067 186.335 468.067C193.795 468.067 199.851 474.906 199.851 483.332" stroke="#EF749B" stroke-miterlimit="10"/>
<path d="M260.412 225.696C256.375 215.287 258.569 202.698 264.274 193.281C269.979 183.863 278.756 177.42 288.06 172.959C295.608 169.291 304.121 166.813 312.021 169.291C322.816 172.761 330.189 185.548 330.189 198.237C330.189 210.926 323.782 222.92 314.829 230.652C299.821 243.44 269.979 250.28 260.412 225.696Z" fill="#4B4065"/>
<path d="M247.159 520.605C246.984 521.596 251.986 541.224 254.181 549.452C254.795 551.732 254.356 554.111 253.127 555.994L216.703 609.028L216.528 608.334C215.035 601.891 215.474 595.051 217.844 588.905L227.148 564.817L220.653 532.401" fill="#F7C689"/>
<path d="M118.05 358.925L110.151 376.471L77.5005 387.177C72.6732 389.259 68.548 392.927 65.7394 397.784L65.4761 398.28H125.335C129.372 398.081 132.971 395.405 134.551 391.241L146.312 358.925" fill="#F7C689"/>
<path d="M193.093 174.743C194.848 181.682 229.781 290.328 229.781 290.328L196.516 285.074L171.589 180.889" fill="#F7C689"/>
<path d="M278.932 216.08C278.932 216.08 276.65 240.07 272.7 246.414C272.7 246.414 282.706 260.094 294.467 247.702L291.307 213.8" fill="#F7C689"/>
<path d="M272.7 247.901C272.7 247.901 255.322 236.501 244.965 245.224C234.608 253.948 217.493 309.163 217.493 309.163L238.909 322.049L272.7 247.901Z" fill="#F7C689"/>
<path d="M272.7 312.533C272.7 312.533 288.148 324.329 307.72 312.533C307.72 312.533 324.133 361.8 310.09 378.553C285.163 408.292 223.9 402.047 223.9 402.047L248.651 521.596L219.687 536.664L179.313 404.326C174.925 389.854 181.42 374.092 194.146 368.64L257.604 341.479L272.7 312.533Z" fill="#495894"/>
<path d="M272.7 324.726C275.158 322.644 219.512 261.779 198.272 238.682C193.181 233.13 186.159 230.553 179.138 231.544C171.326 232.734 164.48 238.285 161.057 246.315L112.345 361.8H148.243L183.351 287.651L232.941 361.8H272.612L272.7 324.726Z" fill="#495894"/>
<path d="M226.182 139.652C228.113 145.203 233.555 148.177 238.646 146.392C243.999 144.509 249.705 147.978 251.372 154.025C252.162 157.098 251.899 160.37 250.494 163.046C247.861 168.201 249.178 174.842 253.566 178.213C258.218 181.782 259.359 188.919 256.199 194.173C254.62 196.75 252.162 198.534 249.353 199.03C244.087 199.922 240.401 205.275 240.752 211.223C241.191 217.567 236.978 223.019 231.361 223.515C228.552 223.713 225.743 222.623 223.725 220.442C219.863 216.378 213.807 216.378 209.945 220.442C205.82 224.704 199.413 224.506 195.551 219.847C193.62 217.468 192.654 214.395 192.83 211.223C193.181 205.275 189.495 199.922 184.228 199.03C178.699 198.039 174.837 192.19 175.715 185.945C176.154 182.773 177.733 179.997 180.016 178.213C184.404 174.842 185.721 168.201 183.087 163.046C180.279 157.495 182.034 150.556 186.862 147.384C189.319 145.798 192.128 145.5 194.849 146.392C199.939 148.177 205.381 145.203 207.312 139.652C209.331 133.704 215.299 130.829 220.477 133.109C223.023 134.299 225.129 136.678 226.182 139.652Z" fill="#F27932"/>
<path d="M174.31 192.091L170.624 176.429C169.834 172.959 169.834 169.192 170.536 165.723C170.887 163.839 172.379 162.55 174.047 162.55H175.451L175.012 159.973C174.837 159.081 175.012 158.09 175.451 157.198C176.066 156.008 177.207 155.314 178.435 155.314H178.699L178.523 154.323C178.348 152.935 178.786 151.547 179.752 150.655C180.63 149.862 181.771 149.565 182.824 149.862L184.579 150.358L202.748 157.792C202.748 157.792 200.992 163.046 197.043 162.154C197.043 162.154 195.989 166.813 192.566 166.615C189.143 166.417 188.704 165.723 188.704 165.723L192.566 167.705C192.566 167.705 191.689 172.364 189.056 171.77C186.422 171.175 180.191 168.994 180.191 168.994L185.369 170.679" fill="#F7C689"/>
<path d="M272.7 246.414C272.7 246.414 257.253 269.412 258.394 277.639C259.535 285.867 271.647 291.716 271.647 291.716L272.7 312.533C272.7 312.533 286.48 325.618 307.72 312.533L313.689 272.485C313.689 272.485 304.122 264.356 294.555 247.603C294.555 247.603 279.985 255.831 272.7 246.414Z" fill="#B9C6E4"/>
<path d="M289.727 143.419C287.358 143.022 284.9 143.914 283.145 145.798C281.389 147.681 279.985 149.862 278.932 152.241C277.527 155.017 276.211 157.991 275.948 161.163C275.684 164.335 277.001 167.903 279.634 169.093C282.267 170.283 285.076 169.192 287.358 167.309C292.097 163.443 299.733 145.699 289.727 143.419Z" fill="#4B4065"/>
<path d="M313.425 272.584C314.215 274.963 313.864 278.432 314.04 280.911C314.478 288.841 315.093 296.771 315.707 304.702C317.111 322.446 318.691 340.19 319.745 357.934C320.359 367.946 320.886 378.057 320.71 388.168C320.534 397.883 320.359 407.499 320.271 417.213C320.271 419.295 320.622 422.071 322.465 422.368C323.782 422.665 325.186 416.123 325.537 414.636C326.591 409.779 326.678 406.606 329.048 403.434C335.104 395.108 345.9 397.586 354.414 397.586H371.616C373.723 397.586 375.478 397.784 377.585 397.784C376.707 394.215 372.933 392.53 364.858 391.836C360.206 391.44 355.555 390.746 351.166 388.862C345.812 386.483 342.652 382.122 342.916 375.777C343.355 367.748 342.214 359.223 341.95 351.094C341.424 334.341 341.073 317.589 341.073 300.836C341.073 287.453 341.16 273.972 341.424 260.49C341.599 251.073 344.32 235.807 335.368 230.057C331.155 227.381 325.888 228.67 321.324 230.454C316.76 232.238 312.46 234.518 308.247 237.294C305.438 239.177 294.555 247.603 294.555 247.603C297.188 252.758 300.347 257.516 303.858 261.977C309.3 268.619 313.337 272.088 313.425 272.584Z" fill="#F7C689"/>
<path d="M272.525 185.053C274.543 182.575 276.825 180.394 279.283 178.51C282.004 176.329 284.9 174.446 287.884 172.761C293.677 169.49 299.909 167.11 306.491 167.21C313.25 167.309 319.745 170.084 324.221 176.032C328.346 181.682 330.54 188.82 330.277 196.155C330.101 204.284 327.293 212.214 323.255 218.856C322.729 219.649 322.29 220.442 321.676 221.235C321.325 221.731 322.114 222.226 322.466 221.731C326.942 215.188 330.189 207.357 330.979 199.129C331.769 191.595 330.101 183.962 326.327 177.618C324.484 174.545 322.114 172.067 319.306 170.084C316.322 168.102 312.986 166.912 309.476 166.417C302.717 165.524 296.047 167.309 289.903 170.481C286.743 172.067 283.671 173.95 280.775 176.131C278.054 178.015 275.597 180.195 273.227 182.674C272.7 183.268 272.261 183.764 271.735 184.359C271.208 184.954 272.174 185.548 272.525 185.053Z" fill="#4B4065"/>
<path d="M292.185 222.722L291.395 213.8L278.932 215.981C278.932 215.981 278.668 218.856 278.142 222.821C278.844 224.407 279.897 225.696 281.214 226.588C283.496 227.976 286.304 227.48 288.499 225.993C289.903 225.101 291.132 224.011 292.185 222.722Z" fill="#F27932"/>
<path d="M281.652 181.187C272.261 188.919 271.296 198.633 271.647 207.654C271.998 216.675 280.073 222.028 283.934 221.433C287.796 220.838 300.874 214.593 301.049 195.858C301.225 177.122 286.831 176.924 281.652 181.187Z" fill="#F7C689"/>
<path d="M299.47 200.418C300.435 198.832 302.103 197.94 303.771 197.94C305.526 198.039 307.018 199.129 307.808 200.913C308.422 202.698 308.071 204.779 306.93 206.167C304.736 208.943 300.786 208.15 299.996 207.952C299.119 207.753 298.504 207.059 298.153 206.167" fill="#F7C689"/>
<path d="M312.196 255.335L314.742 286.363" stroke="#F27932" stroke-miterlimit="10" stroke-linecap="round" stroke-linejoin="round"/>
<path d="M134.814 398.18H64.7739V400.56H134.814V398.18Z" fill="#F27932"/>
<path d="M90.666 398.18C90.5782 391.241 87.9451 385.591 83.3811 380.932L88.1207 380.04C92.6847 384.699 95.3178 391.241 95.4055 398.081" stroke="white" stroke-miterlimit="10"/>
<path d="M227.938 354.266L272.788 335.233" stroke="#4B4065" stroke-miterlimit="10"/>
<path d="M270.418 318.282L257.604 341.578" stroke="#4B4065" stroke-miterlimit="10"/>
<path d="M288.674 207.258C287.972 208.646 287.006 209.934 285.953 211.025C284.812 212.115 283.32 212.412 281.916 211.818C280.599 211.124 279.458 208.844 278.756 207.357C281.652 207.159 285.69 207.456 288.674 207.258Z" fill="white"/>
<path d="M283.759 286.561C290.342 292.112 299.733 290.625 304.648 283.191C305.789 281.505 306.579 279.523 307.106 277.441" stroke="#4B4065" stroke-miterlimit="10" stroke-linecap="round" stroke-linejoin="round"/>
<path d="M302.98 193.578C295.52 192.785 288.762 185.846 285.953 178.114C296.31 177.122 302.454 184.359 302.98 193.578Z" fill="#4B4065"/>
<path d="M115.856 363.584L142.538 369.334L145.347 361.8H116.646L115.856 363.584Z" fill="#4B4065"/>
<path d="M112.345 370.92L140.431 377.363L137.623 386.087L108.922 375.777L112.345 370.92Z" stroke="white" stroke-miterlimit="10"/>
<path d="M124.106 397.685L128.056 382.617L133.41 384.501V397.685H124.106Z" stroke="white" stroke-miterlimit="10"/>
<path d="M197.043 162.154L182.122 156.404" stroke="#F27932" stroke-width="0.75" stroke-miterlimit="10"/>
<path d="M191.338 166.714L179.138 162.055" stroke="#F27932" stroke-width="0.75" stroke-miterlimit="10"/>
<path d="M188.178 171.869L178.348 168.102" stroke="#F27932" stroke-width="0.75" stroke-miterlimit="10"/>
<path d="M349.85 212.016H546.98C538.379 199.129 528.11 188.225 514.242 184.656C510.38 183.665 506.343 183.07 502.481 184.161C498.619 185.251 495.108 188.423 494.143 192.785C479.31 167.408 453.944 150.358 427.526 145.203C419.977 143.716 411.815 143.319 404.969 147.086C398.211 150.952 393.559 158.288 392.593 166.714C391.716 175.14 394.612 183.566 400.317 189.216C396.806 179.997 384.431 175.735 378.024 182.773C373.635 187.63 372.582 195.065 369.334 200.913C365.209 208.15 357.398 212.016 349.85 212.016Z" stroke="#C2D9F0" stroke-miterlimit="10"/>
<path d="M411.552 422.467H342.74V468.562H411.552V422.467Z" fill="#C2D9F0"/>
<path d="M154.211 470.842C155.791 470.347 157.371 469.653 158.775 468.661C157.371 467.67 155.791 466.877 154.211 466.48C152.543 465.985 151.315 464.498 150.876 462.714C150.437 460.83 149.823 459.145 148.945 457.559C148.067 459.145 147.365 460.929 147.014 462.714C146.575 464.597 145.259 465.985 143.679 466.48C142.011 466.976 140.519 467.67 139.115 468.661C140.519 469.653 142.099 470.446 143.679 470.842C145.346 471.338 146.575 472.825 147.014 474.708C147.453 476.493 148.067 478.277 148.945 479.863C149.823 478.277 150.525 476.493 150.876 474.708C151.227 472.825 152.543 471.338 154.211 470.842Z" fill="white"/>
<path d="M469.128 386.781C472.112 385.888 475.009 384.501 477.642 382.716C475.009 380.833 472.112 379.445 469.128 378.652C466.056 377.76 463.686 375.083 462.896 371.614C462.107 368.243 460.878 364.972 459.298 361.998C457.63 364.972 456.402 368.243 455.699 371.614C454.909 375.083 452.54 377.76 449.468 378.652C446.484 379.544 443.587 380.932 440.954 382.716C443.587 384.6 446.484 385.988 449.468 386.781C452.54 387.673 454.909 390.349 455.699 393.819C456.489 397.189 457.718 400.46 459.298 403.434C460.966 400.46 462.194 397.189 462.896 393.819C463.686 390.349 466.056 387.673 469.128 386.781Z" fill="#C2D9F0"/>
<path d="M66.1781 302.62L67.2314 276.846L48.0976 290.625L42.3926 279.622L62.5796 267.925L42.3926 256.228L48.0976 245.224L67.2314 259.301L66.1781 233.527H77.4126L76.3594 259.301L95.5809 245.125L101.286 256.128L80.9234 267.826L101.286 279.523L95.5809 290.625L76.4472 276.846L77.5004 302.62H66.1781Z" stroke="#C2D9F0" stroke-miterlimit="10"/>
<path d="M213.807 198.039H208.277L219.512 161.658H225.129L213.807 198.039Z" fill="white"/>
<path d="M204.327 162.848C200.553 162.848 197.481 166.317 197.481 170.58C197.481 174.842 200.553 178.312 204.327 178.312C208.102 178.312 211.173 174.842 211.173 170.58C211.173 166.317 208.102 162.848 204.327 162.848ZM204.327 173.653C202.835 173.653 201.607 172.265 201.607 170.58C201.607 168.895 202.835 167.507 204.327 167.507C205.82 167.507 207.048 168.895 207.048 170.58C207.136 172.265 205.82 173.653 204.327 173.653Z" fill="white"/>
<path d="M229.078 182.674C225.304 182.674 222.232 186.143 222.232 190.406C222.232 194.668 225.304 198.138 229.078 198.138C232.853 198.138 235.924 194.668 235.924 190.406C235.837 186.044 232.765 182.674 229.078 182.674ZM229.078 193.479C227.586 193.479 226.358 192.091 226.358 190.406C226.358 188.721 227.586 187.333 229.078 187.333C230.571 187.333 231.799 188.721 231.799 190.406C231.799 192.091 230.571 193.479 229.078 193.479Z" fill="white"/>
<path d="M221.706 537.655L248.915 528.833L247.423 522.29L221.355 535.871L221.706 537.655Z" fill="#4B4065"/>
<path d="M224.778 553.119L249.266 530.22L252.162 539.638L226.182 559.166L224.778 553.119Z" stroke="white" stroke-miterlimit="10"/>
<path d="M124.721 495.624C125.932 495.624 126.915 494.515 126.915 493.146C126.915 491.778 125.932 490.668 124.721 490.668C123.509 490.668 122.526 491.778 122.526 493.146C122.526 494.515 123.509 495.624 124.721 495.624Z" fill="white"/>
<path d="M444.201 416.123C446.043 416.123 447.537 414.436 447.537 412.356C447.537 410.276 446.043 408.589 444.201 408.589C442.359 408.589 440.866 410.276 440.866 412.356C440.866 414.436 442.359 416.123 444.201 416.123Z" fill="#C2D9F0"/>
<path d="M218.985 340.884L257.604 341.578L227.938 354.266L218.985 340.884Z" fill="#4B4065"/>
<path d="M383.202 483.332H267.083V559.067H383.202V483.332Z" fill="#FBD7AD"/>
<path d="M385.747 479.863H264.011V495.525H385.747V479.863Z" fill="#F7C689"/>
<path opacity="0.37" d="M267.083 498.896L383.202 503.852V495.525H267.083V498.896Z" fill="#F27932"/>
<path d="M335.982 495.525C335.982 502.464 331.067 508.016 324.923 508.016C318.867 508.016 313.864 502.464 313.864 495.525" fill="white"/>
<path d="M121.122 471.933H43.8848V547.667H121.122V471.933Z" fill="#FBD7AD"/>
<path opacity="0.37" d="M43.8848 487.397L121.122 492.452V484.125H43.8848V487.397Z" fill="#F27932"/>
<path d="M93.9133 484.125C93.9133 491.064 88.9982 496.616 82.8544 496.616C76.7105 496.616 71.7954 491.064 71.7954 484.125" fill="white"/>
<path d="M123.667 468.463H40.7251V484.125H123.667V468.463Z" fill="white" stroke="#F7C689" stroke-miterlimit="10"/>
<path d="M105.938 520.208H59.771V529.031H105.938V520.208Z" fill="white"/>
<path d="M128.232 400.56L89.7007 412.951L91.7194 400.56H128.232Z" fill="#4B4065"/>
<path d="M401.019 306.684C400.58 294.491 410.323 283.092 421.118 283.191C431.914 283.29 441.481 294.888 440.867 307.081C440.515 313.722 436.215 320.86 430.334 320.463C424.629 320.067 421.206 312.632 421.118 306.189C420.943 290.923 435.249 277.838 448.415 281.01" stroke="#4B4065" stroke-miterlimit="10"/>
<path d="M272.7 195.164C274.28 194.173 276.123 193.776 277.879 194.074C279.81 194.272 281.038 194.767 282.443 196.056C281.74 197.84 280.336 198.931 277.879 198.336C275.948 197.94 274.105 196.849 272.7 195.164Z" fill="white"/>
<path d="M282.442 195.957C279.721 193.578 275.947 193.281 272.875 195.164" stroke="#4B4065" stroke-width="0.7978" stroke-miterlimit="10"/>
<path d="M287.27 196.552C288.586 195.065 290.254 194.272 292.009 193.974C293.94 193.677 295.169 193.677 296.837 194.569C296.573 196.453 295.432 198.039 292.975 198.138C291.044 198.336 289.025 197.741 287.27 196.552Z" fill="white"/>
<path d="M296.924 194.569C293.765 192.983 289.991 193.776 287.533 196.552" stroke="#4B4065" stroke-width="0.7978" stroke-miterlimit="10"/>
<path d="M282.179 189.117C279.107 187.234 275.421 187.928 273.051 190.901C276.211 190.208 279.107 189.811 282.179 189.117Z" fill="#4B4065" stroke="#4B4065" stroke-linecap="round" stroke-linejoin="round"/>
<path d="M296.749 191.595C294.379 188.621 290.693 187.928 287.621 189.811C290.781 190.208 293.589 191.001 296.749 191.595Z" fill="#4B4065" stroke="#4B4065" stroke-linecap="round" stroke-linejoin="round"/>
<path d="M283.671 195.164L279.809 201.607L281.389 203.094" stroke="#4B4065" stroke-miterlimit="10" stroke-linecap="round" stroke-linejoin="round"/>
<path d="M275.07 203.094C278.221 203.094 280.775 200.21 280.775 196.651C280.775 193.092 278.221 190.208 275.07 190.208C271.919 190.208 269.365 193.092 269.365 196.651C269.365 200.21 271.919 203.094 275.07 203.094Z" stroke="#F27932" stroke-miterlimit="10" stroke-linecap="round" stroke-linejoin="round"/>
<path d="M289.903 203.094C293.054 203.094 295.608 200.21 295.608 196.651C295.608 193.092 293.054 190.208 289.903 190.208C286.752 190.208 284.198 193.092 284.198 196.651C284.198 200.21 286.752 203.094 289.903 203.094Z" stroke="#F27932" stroke-miterlimit="10" stroke-linecap="round" stroke-linejoin="round"/>
<path d="M280.775 196.651C280.775 196.651 282.179 194.767 284.198 196.651" stroke="#F27932" stroke-miterlimit="10" stroke-linecap="round" stroke-linejoin="round"/>
<path d="M301.05 322.049C301.05 322.049 297.802 339 313.425 347.625" stroke="#4B4065" stroke-miterlimit="10" stroke-linecap="round" stroke-linejoin="round"/>
<path d="M235.135 526.454L233.643 520.704" stroke="#4B4065" stroke-linecap="round" stroke-linejoin="round"/>
<path d="M230.658 508.908L203.538 403.137C201.958 396.793 204.854 390.151 210.208 387.772L281.565 355.951" stroke="#4B4065" stroke-linecap="round" stroke-linejoin="round" stroke-dasharray="12.43 12.43"/>
<path d="M286.656 353.671L291.571 351.491" stroke="#4B4065" stroke-linecap="round" stroke-linejoin="round"/>
<path d="M245.053 329.98L188.09 257.814C185.194 254.146 179.928 254.84 177.909 259.201L134.814 351.59" stroke="#4B4065" stroke-miterlimit="10" stroke-linecap="round" stroke-linejoin="round" stroke-dasharray="12 12"/>
<path d="M272.7 195.164C273.753 196.453 275.158 197.444 276.65 197.94C276.825 197.642 276.913 197.345 277.001 197.047C277.264 195.957 277.176 194.867 276.825 193.974C275.421 193.974 273.929 194.371 272.7 195.164Z" fill="#4B4065"/>
<path d="M287.533 196.651C288.938 197.543 290.43 198.039 292.009 198.138C292.097 197.84 292.097 197.444 292.097 197.147C292.097 195.957 291.746 194.966 291.22 194.272C289.815 194.668 288.586 195.561 287.533 196.651Z" fill="#4B4065"/>
</g>
<defs>
<clipPath id="clip0_127_95">
<rect width="582" height="535" fill="white"/>
</clipPath>
</defs>
</svg>
