<svg width="664" height="479" viewBox="0 0 664 479" fill="none" xmlns="http://www.w3.org/2000/svg">
<path d="M398.213 307.535C398.213 307.535 402.229 274.04 408.953 269.295C415.677 264.551 439.211 264.361 442.387 261.514C445.469 258.668 457.049 228.303 460.691 231.909C464.333 235.515 458.45 272.237 458.45 272.237C458.45 272.237 429.779 295.105 428.752 305.448C427.631 315.696 398.213 307.535 398.213 307.535Z" fill="#FBD7AD"/>
<path d="M441.453 269.2C441.453 269.2 450.325 266.069 453.5 257.814C456.395 250.317 460.597 231.909 460.597 231.909" stroke="#F27932" stroke-width="1.0762" stroke-linecap="round" stroke-linejoin="round"/>
<path d="M446.029 273.85C446.029 273.85 454.901 270.719 458.076 262.463C460.971 254.967 465.174 236.558 465.174 236.558" stroke="#F27932" stroke-width="1.0762" stroke-linecap="round" stroke-linejoin="round"/>
<path d="M391.769 362.002L370.476 281.441C369.356 275.083 365.433 269.77 359.736 266.828L319.019 260.091L339.751 436.395L382.99 445.409L435.942 404.512L391.769 362.002Z" fill="#B9C6E4"/>
<path d="M267.374 259.616C248.323 254.208 224.602 245.288 222.267 222.325C221.24 211.982 224.789 201.639 231.98 194.238C238.237 187.785 246.922 183.8 251.591 176.019C254.393 171.275 255.514 165.581 257.288 160.268C264.666 139.202 293.71 134.173 312.762 136.545C327.891 138.538 341.432 148.596 350.771 160.078C374.492 189.493 383.271 266.448 298.099 263.697C287.92 263.412 277.46 262.463 267.374 259.616Z" fill="#ED4F2E"/>
<path d="M271.203 197.179C277.834 203.917 268.682 214.829 264.386 220.332C258.316 228.208 254.393 236.843 257.568 247.186C263.265 265.12 282.597 267.113 298.286 263.222C303.796 261.894 309.12 258.762 312.108 253.733C316.03 246.806 314.536 238.077 312.108 230.296C309.867 222.989 307.065 215.683 301.928 209.895C298.38 205.719 293.617 202.683 288.2 201.449C285.679 200.88 283.437 201.639 280.822 201.26C277.741 200.975 274.192 198.698 271.39 197.559" fill="#CC3D2E"/>
<path d="M322.661 149.545C315.75 146.793 306.691 149.545 303.89 157.041C300.341 166.341 309.213 176.304 304.076 185.318C301.648 189.493 296.979 192.055 292.216 191.771C291.375 191.771 291.189 190.347 292.216 190.347C296.699 190.632 300.994 188.165 303.049 184.18C305.477 179.435 303.796 174.027 302.582 169.282C301.555 164.822 300.901 160.078 302.862 155.808C304.45 152.487 307.252 149.925 310.52 148.596C314.443 146.983 319.019 146.888 322.941 148.407C323.875 148.501 323.501 150.02 322.661 149.545Z" fill="#ED4F2E"/>
<path d="M245.895 123.83C229.832 119.845 213.395 129.713 209.473 146.224C207.885 152.866 208.446 159.698 211.154 165.866C213.582 171.465 218.532 176.778 224.602 176.589C231.419 176.399 236.089 169.851 238.984 163.684C241.132 159.224 243.093 154.195 246.735 150.779C250.938 146.793 256.728 147.458 261.024 143.852C270.643 135.786 252.899 125.538 245.895 123.83Z" fill="#ED4F2E"/>
<path d="M274.472 142.049C274.005 138.158 270.643 135.407 267.001 135.881C266.814 135.881 266.534 135.881 266.44 136.071C264.199 136.925 262.331 138.253 260.93 140.056C258.502 142.618 256.447 145.37 254.3 148.217C252.992 149.64 252.152 151.538 251.871 153.341C251.685 156.662 254.393 159.414 257.662 159.414C257.942 159.414 258.409 159.414 258.689 159.414" fill="white"/>
<path d="M274.472 142.049C274.005 138.158 270.643 135.407 267.001 135.881C266.814 135.881 266.534 135.881 266.44 136.071C264.199 136.925 262.331 138.253 260.93 140.056C258.502 142.618 256.447 145.37 254.3 148.217C252.992 149.64 252.152 151.538 251.871 153.341C251.685 156.662 254.393 159.414 257.662 159.414C257.942 159.414 258.409 159.414 258.689 159.414" stroke="#F7C689" stroke-width="1.5127" stroke-miterlimit="10"/>
<path d="M254.953 146.699C252.152 147.553 249.163 148.312 246.735 150.589C243.093 154.005 241.038 159.034 238.984 163.494C236.276 168.903 232.353 174.691 226.656 176.114C222.267 174.121 219.279 169.757 218.905 164.917C218.625 160.078 220.493 155.144 223.855 151.728C227.403 148.312 231.793 146.129 236.462 145.37C242.719 144.516 248.883 145.56 254.953 146.699Z" fill="#CC3D2E"/>
<path d="M320.233 148.786C327.611 150.399 333.961 154.859 337.884 161.122C341.993 167.289 344.141 174.786 345.541 182.092C347.129 191.296 347.222 200.596 346.008 209.8C344.327 220.712 331.44 226.595 324.716 222.989L326.957 252.595L345.075 258.383L326.116 308.579L287.547 291.309L274.939 248.989L284.558 247.945L286.986 213.785C287.08 213.88 265.974 138.823 320.233 148.786Z" fill="#FBD7AD"/>
<path d="M291.002 190.442C288.48 187.975 285.492 186.172 282.41 184.844C279.141 183.515 275.499 183.8 272.51 185.888C269.429 188.45 268.401 192.909 269.989 196.61C271.67 200.311 275.219 202.778 279.141 203.063C283.063 203.347 287.079 202.209 290.161 199.647" fill="#FBD7AD"/>
<path d="M326.303 184.18C324.996 179.91 321.54 177.537 317.244 176.873C312.762 176.304 308.372 178.202 305.664 181.902C307.252 185.508 311.454 187.501 315.377 187.785C319.392 187.975 323.221 186.742 326.303 184.18Z" fill="white"/>
<path d="M325.649 183.421C325.649 183.61 325.463 183.61 325.463 183.705C324.902 184.844 320.233 187.311 317.151 185.034C315.003 183.421 313.602 178.391 314.162 176.683C316.591 175.924 319.392 177.158 321.54 178.391C322.474 178.961 326.21 181.807 325.649 183.421Z" fill="#B9C6E4"/>
<path d="M325.743 184.275C324.902 181.713 323.221 179.53 320.793 178.107C318.925 177.063 316.684 176.778 314.723 177.253C312.762 177.537 310.894 178.297 309.213 179.245C307.905 180.005 306.785 180.953 306.131 182.092C305.851 182.661 304.823 182.092 305.104 181.523C306.504 179.056 309.493 177.632 312.014 176.778C315.376 175.45 319.205 175.735 322.194 177.822C324.342 179.435 325.836 181.523 326.677 183.99C327.05 184.749 326.023 185.034 325.743 184.275Z" fill="#4B4065"/>
<path d="M305.664 171.749C307.252 169.472 309.493 167.859 312.201 167.289C314.91 166.72 317.711 167.289 320.139 168.903C315.003 169.946 310.8 170.8 305.664 171.749Z" fill="#ED4F2E"/>
<path d="M320.233 169.472C320.513 169.282 320.793 168.997 320.7 168.713C320.7 168.523 320.513 168.428 320.419 168.238C317.991 166.625 314.909 166.056 312.108 166.625C309.306 167.195 306.878 168.903 305.197 171.37C305.01 171.654 305.01 171.939 305.384 172.224C305.57 172.413 305.664 172.413 305.851 172.413C308.372 171.939 310.8 171.37 313.042 170.99C315.19 170.611 317.711 169.946 320.233 169.472ZM312.014 168.049L312.481 167.859C314.442 167.384 316.59 167.669 318.552 168.618L313.042 169.757L307.345 170.895C308.372 169.472 310.053 168.523 312.014 168.049Z" fill="#ED4F2E"/>
<path d="M280.168 202.114C280.729 197.274 283.717 194.523 286.799 195.946C289.881 197.369 293.056 202.303 294.177 207.712C295.298 213.121 294.364 218.435 291.936 220.902C289.507 223.369 285.959 222.8 283.064 219.763" stroke="white" stroke-width="1.5127" stroke-miterlimit="10"/>
<path d="M333.774 181.807L336.015 184.275C336.576 184.749 337.043 185.413 337.136 185.983C337.416 187.026 336.949 188.165 336.109 188.829C335.362 189.588 334.428 190.158 333.587 190.442" stroke="#4B4065" stroke-width="1.1345" stroke-linecap="round" stroke-linejoin="round"/>
<path d="M339.564 196.895L323.875 199.457C325.556 201.734 327.704 203.632 330.226 204.866C332.654 205.909 335.269 205.72 337.416 204.391C339.564 203.063 340.405 199.362 339.564 196.895Z" stroke="#ED4F2E" stroke-width="1.5127" stroke-linecap="round" stroke-linejoin="round"/>
<path d="M338.63 161.596C339.191 162.64 339.751 163.779 340.218 164.917L336.015 166.246C335.735 166.435 335.455 166.056 335.455 165.771C335.455 165.581 335.455 165.487 335.455 165.297C336.109 163.873 337.229 162.64 338.63 161.596Z" fill="#ED4F2E"/>
<path d="M336.109 166.625C337.696 166.151 339.097 165.771 340.311 165.297C340.498 165.297 340.592 165.107 340.778 165.012C340.778 164.822 340.778 164.727 340.778 164.538C340.311 163.494 339.751 162.355 339.191 161.217C339.004 161.027 339.004 160.932 338.724 160.932C338.537 160.932 338.444 160.932 338.257 161.122C336.856 162.165 335.549 163.589 334.708 165.107C334.428 165.676 334.521 166.246 335.175 166.53C335.549 166.815 335.829 166.815 336.109 166.625ZM339.284 164.443L335.735 165.487C336.482 164.348 337.323 163.304 338.257 162.45C338.724 163.209 339.004 163.779 339.284 164.443Z" fill="#ED4F2E"/>
<path d="M342.74 170.8C343.58 173.837 344.421 176.873 344.981 180.005V180.289C343.02 180.574 340.872 180.005 339.191 178.961C339.284 175.829 340.592 172.983 342.74 170.8Z" fill="white"/>
<path d="M343.393 180.099C342.366 178.961 341.712 177.537 341.712 175.924C341.432 174.311 341.525 172.603 342.273 171.18C342.459 171.18 342.739 170.895 342.833 170.895C343.954 173.932 344.794 177.063 345.261 180.194C344.514 180.384 343.954 180.289 343.393 180.099Z" fill="#B9C6E4"/>
<path d="M342.833 171.085C340.872 172.793 339.751 175.545 339.751 178.297C339.751 178.581 339.471 178.771 339.191 178.771C338.91 178.771 338.724 178.486 338.724 178.297C338.537 175.26 339.844 172.413 342.086 170.421C342.272 170.231 342.646 170.231 342.833 170.421C343.02 170.516 343.02 170.895 342.833 171.085Z" fill="#4B4065"/>
<path opacity="0.3" d="M328.544 224.792L307.251 217.296C307.251 217.296 311.641 237.697 329.105 238.551" fill="#F27932"/>
<path d="M222.734 253.164C240.011 240.639 274.845 249.179 284.651 248.04C328.264 298.521 326.303 303.265 326.303 303.265C326.303 303.265 338.444 265.5 340.031 256.58C355.254 258.288 371.41 264.076 372.811 301.083C373.091 310.857 372.811 351.184 350.491 349.287L355.721 384.206C349.183 389.52 267.561 394.833 267.561 394.833L274.098 379.177L259.529 314.178L214.609 288.747C214.982 278.12 213.862 259.522 222.734 253.164Z" fill="#B9C6E4"/>
<path d="M256.261 383.542L285.585 452.811L229.738 454.898L201.254 371.775L215.263 270.813L260.183 285.521L256.261 383.542Z" fill="#B9C6E4"/>
<path d="M368.141 314.367C374.679 325.28 371.223 339.608 360.483 346.25C357.495 348.148 353.946 349.287 350.491 349.571C351.892 360.199 352.639 373.673 354.04 384.301" stroke="#4B4065" stroke-width="1.5127" stroke-miterlimit="10"/>
<path d="M259.343 314.367L261.491 282.485" stroke="#4B4065" stroke-width="1.5127" stroke-miterlimit="10"/>
<path d="M273.631 169.472C273.164 176.968 276.06 182.946 282.97 185.413C283.811 185.698 284.838 185.983 285.679 185.983C292.216 186.457 298.1 182.282 299.967 175.924C301.555 169.851 298.847 163.304 300.808 157.421C302.489 152.866 306.318 149.355 310.987 148.217C315.657 147.173 320.606 147.742 324.809 149.925C318.178 145.18 310.147 142.713 302.022 142.903C297.352 142.903 292.683 144.231 288.761 146.604C278.394 153.246 274.098 161.217 273.631 169.472Z" fill="#ED4F2E"/>
<path d="M415.957 167.954C420.599 167.954 424.362 164.13 424.362 159.414C424.362 154.697 420.599 150.874 415.957 150.874C411.315 150.874 407.552 154.697 407.552 159.414C407.552 164.13 411.315 167.954 415.957 167.954Z" fill="#EA7A2F"/>
<path d="M639.345 222.8C642.749 222.8 645.509 219.996 645.509 216.537C645.509 213.078 642.749 210.274 639.345 210.274C635.941 210.274 633.182 213.078 633.182 216.537C633.182 219.996 635.941 222.8 639.345 222.8Z" stroke="#4B4065" stroke-width="2" stroke-miterlimit="10"/>
<path d="M160.443 175.165H24.2812V313.513H160.443V175.165Z" fill="#F7C689"/>
<path d="M162.965 437.723H472.178C472.178 446.643 464.987 453.949 456.208 453.949H178.934C170.156 453.949 162.965 446.643 162.965 437.723Z" fill="white" stroke="#B9C6E4" stroke-miterlimit="10"/>
<path d="M204.337 291.689H435.196C442.573 291.689 448.55 297.762 448.55 305.258V453.854H190.982V305.258C190.982 297.762 196.959 291.689 204.337 291.689Z" fill="#495894"/>
<path d="M319.392 387.053C327.748 387.053 334.521 380.17 334.521 371.681C334.521 363.191 327.748 356.308 319.392 356.308C311.037 356.308 304.263 363.191 304.263 371.681C304.263 380.17 311.037 387.053 319.392 387.053Z" fill="white"/>
<path d="M523.916 229.632H597.693C608.527 229.632 617.399 238.551 617.399 249.653V313.229C617.399 324.236 608.62 333.25 597.693 333.25H523.916C513.082 333.25 504.21 324.331 504.21 313.229V249.653C504.21 238.551 512.989 229.632 523.916 229.632Z" fill="#C2D9F0"/>
<path d="M88.1597 276.507L89.187 252.595L69.3884 265.405L63.5049 255.157L84.3308 244.244L63.5049 233.332L69.3884 223.084L89.187 236.179L88.1597 212.267H99.74L98.7128 236.179L118.511 223.084L124.395 233.332L103.382 244.244L124.395 255.157L118.511 265.405L98.7128 252.5L99.74 276.412L88.1597 276.507Z" fill="white"/>
<path d="M547.73 311.141L565.848 333.25L549.598 333.63L547.73 311.141Z" fill="#4B4065"/>
<path d="M548.571 357.542C549.504 358.016 550.719 357.637 551.185 356.688C551.372 356.403 551.466 356.024 551.372 355.644L549.598 333.725L547.73 311.236C547.637 310.192 546.703 309.338 545.675 309.528C545.395 309.528 545.209 309.623 544.928 309.718L525.503 320.725L506.545 331.447C505.611 331.922 505.238 333.156 505.798 334.104C505.985 334.484 506.265 334.674 506.545 334.864L516.071 340.082L499.541 371.301L522.421 383.731L538.951 352.323L548.571 357.542Z" fill="white" stroke="#F7C689" stroke-width="2" stroke-miterlimit="10"/>
<path d="M111.881 114.057C111.134 96.9766 126.356 80.9404 143.26 81.0353C160.163 81.1301 175.106 97.4511 174.078 114.531C173.518 123.83 166.794 133.888 157.735 133.319C148.77 132.75 143.447 122.407 143.353 113.298C143.166 91.9475 165.393 73.539 185.939 77.9988" stroke="#4B4065" stroke-width="2" stroke-miterlimit="10"/>
<path d="M546.983 263.507V298.426L561.738 288.178L576.401 298.426V263.507H546.983Z" fill="#495894"/>
<path opacity="0.46" d="M446.776 171.085L467.789 51.4299H560.991L581.07 171.085H446.776Z" fill="#EF749B"/>
<path d="M492.63 50.2912C492.35 38.3352 501.782 28.4667 513.456 28.1821C525.223 27.8974 534.936 37.4812 535.216 49.3423C535.216 49.627 535.216 49.9117 535.216 50.1014" stroke="#231F20" stroke-width="0.8492" stroke-miterlimit="10"/>
<path d="M598.72 210.369H539.418L511.495 181.333V121.743H598.72V210.369Z" fill="white" stroke="#F27932" stroke-width="0.8492" stroke-miterlimit="10"/>
<path d="M511.495 121.743L496.739 170.99H511.495" fill="#EF749B"/>
<path d="M560.337 148.976L562.392 154.574C562.859 155.903 564.166 156.947 565.661 156.947L571.638 157.231C573.599 157.326 575.186 159.129 575.093 161.122C575 162.165 574.533 163.114 573.786 163.873L569.116 167.669C567.995 168.523 567.529 170.041 567.809 171.559L569.396 177.348C569.957 179.245 568.743 181.333 566.875 181.902C565.847 182.187 564.82 181.997 563.98 181.428L559.03 178.107C557.816 177.348 556.228 177.348 555.108 178.107L550.158 181.428C548.477 182.567 546.236 182.092 545.115 180.384C544.555 179.53 544.368 178.391 544.648 177.443L546.236 171.654C546.609 170.231 546.142 168.713 544.928 167.764L540.259 163.968C538.671 162.64 538.391 160.363 539.698 158.749C540.352 157.99 541.379 157.421 542.407 157.421L548.384 157.136C549.784 157.041 551.092 156.093 551.652 154.764L553.707 149.166C554.454 147.268 556.602 146.319 558.47 147.173C559.217 147.363 560.057 148.027 560.337 148.976Z" fill="#F7C689"/>
<path d="M432.861 255.631C409.14 246.332 408.953 197.654 443.04 213.216C453.78 215.588 468.162 227.639 449.671 231.529C425.016 235.23 404.657 196.99 431.927 185.413" stroke="#FBD7AD" stroke-miterlimit="10" stroke-dasharray="4 4"/>
</svg>
